# AST/ASF file generated using VICON BodyLanguage
# -----------------------------------------------
:version 1.10
:name VICON
:units
  mass 1.0
  length 0.45
  angle deg
:documentation
   .ast/.asf automatically generated from VICON data using
   VICON BodyBuilder and BodyLanguage model FoxedUp or BRILLIANT.MOD
:root
   order TX TY TZ RX RY RZ
   axis XYZ
   position 0 0 0  
   orientation 0 0 0 
:bonedata
  begin
     id 1 
     name lhipjoint
     direction 0.682418 -0.694059 0.22932 
     length 2.25561 
     axis 0 0 0  XYZ
  end
  begin
     id 2 
     name lfemur
     direction 0.34202 -0.939693 0  
     length 6.96448  
     axis 0 0 20  XYZ
    dof rx ry rz
    limits (-160.0 20.0)
           (-70.0 70.0)
           (-60.0 70.0)
  end
  begin
     id 3 
     name ltibia
     direction 0.34202 -0.939693 0   
     length 6.88553   
     axis 0 0 20   XYZ
    dof rx
    limits (-10.0 170.0)
  end
  begin
     id 4 
     name lfoot
     direction 0.0723587 -0.198804 0.977364   
     length 1.88518   
     axis -90 7.62852e-016 20   XYZ
    dof rx rz
    limits (-45.0 90.0)
           (-70.0 20.0)
  end
  begin
     id 5 
     name ltoes
     direction 1.53558e-011 -4.21962e-011 1   
     length 0.952124   
     axis -90 7.62852e-016 20   XYZ
    dof rx
    limits (-90.0 20.0)
  end
  begin
     id 6 
     name rhipjoint
     direction -0.657603 -0.71533 0.236348   
     length 2.18854  
     axis 0 0 0  XYZ 
  end
  begin
     id 7 
     name rfemur
     direction -0.34202 -0.939693 0   
     length 6.86686   
     axis 0 0 -20   XYZ
    dof rx ry rz
    limits (-160.0 20.0)
           (-70.0 70.0)
           (-70.0 60.0)
  end
  begin
     id 8 
     name rtibia
     direction -0.34202 -0.939693 0   
     length 6.59503   
     axis 0 0 -20   XYZ
    dof rx
    limits (-10.0 170.0)
 end
 begin
     id 9 
     name rfoot
     direction -0.101977 -0.280179 0.954516   
     length 1.93723  
     axis -90 -7.62852e-016 -20   XYZ
    dof rx rz
    limits (-45.0 90.0)
           (-20.0 70.0)
  end
  begin
     id 10 
     name rtoes
     direction -1.53564e-011 -4.21897e-011 1   
     length 0.970315   
     axis -90 -7.62852e-016 -20   XYZ
    dof rx
    limits (-90.0 20.0)
  end
  begin
     id 11 
     name lowerback
     direction -0.0339559 0.999421 -0.00235966   
     length 1.88543   
     axis 0 0 0   XYZ
    dof rx ry rz
    limits (-20.0 45.0)
           (-30.0 30.0)
           (-30.0 30.0)
  end
  begin
     id 12 
     name upperback
     direction 0.00401003 0.999739 0.0224689   
     length 1.8856   
     axis 0 0 0   XYZ
    dof rx ry rz
    limits (-20.0 45.0)
           (-30.0 30.0)
           (-30.0 30.0)
  end
  begin
     id 13 
     name thorax
     direction 0.0198619 0.999546 0.0226536   
     length 1.88352   
     axis 0 0 0   XYZ
    dof rx ry rz
    limits (-20.0 45.0)
           (-30.0 30.0)
           (-30.0 30.0)
  end
  begin
     id 14 
     name lowerneck
     direction -0.0461848 0.998632 0.0245198   
     length 1.34895   
     axis 0 0 0   XYZ
    dof rx ry rz
    limits (-20.0 45.0)
           (-30.0 30.0)
           (-30.0 30.0)
  end
  begin
     id 15 
     name upperneck
     direction -0.0180627 0.994724 -0.100984   
     length 1.35214   
     axis 0 0 0   XYZ
    dof rx ry rz
    limits (-20.0 45.0)
           (-30.0 30.0)
           (-30.0 30.0)
  end
  begin
     id 16
     name head
     direction -0.00374772 0.999293 -0.037403  
     length 1.3568  
     axis 0 0 0   XYZ
    dof rx ry rz
    limits (-20.0 45.0)
           (-30.0 30.0)
           (-30.0 30.0)
  end
  begin
     id 17 
     name lclavicle
     direction 0.971773 0.191119 0.138311  
     length 2.84954  
     axis 0 0 0   XYZ
    dof ry rz
    limits (-20.0 10.0)
           (0.0 20.0)
  end
  begin
     id 18 
     name lhumerus
     direction 1 -4.4897e-011 -2.43761e-027   
     length 4.40919   
     axis 180 -30 -90   XYZ
    dof rx ry rz
    limits (-60.0 90.0)
           (-90.0 90.0)
           (-90.0 90.0)
  end
  begin
     id 19
     name lradius
     direction 1 -4.4896e-011 -9.1621e-027   
     length 3.03857   
     axis 180 -30 -90   XYZ
    dof rx
    limits (-10.0 170.0)
  end
  begin
     id 20
     name lwrist
     direction 1 -4.4896e-011 -1.41363e-026   
     length 1.51928   
     axis 1.07133e-014 90 90   XYZ
    dof ry
    limits (-180.0 0.0)
 end
  begin
     id 21 
     name lhand
     direction 1 -4.48978e-011 -2.82725e-026   
     length 0.523208   
     axis 1.80403e-014 90 90   XYZ
    dof rx rz
    limits (-90.0 90.0)
           (-45.0 45.0)
  end
  begin
     id 22 
     name lfingers
     direction 1 -4.48977e-011 -5.6545e-026   
     length 0.421824   
     axis 3.60806e-014 90 90   XYZ
    dof rx
    limits (0.0 90.0)
  end
  begin
     id 23
     name lthumb
     direction 0.707107 -6.34962e-011 0.707107   
     length 0.605657   
     axis -90 45 2.85299e-015   XYZ
    dof rx rz
    limits (-45.0 45.0)
           (-45.0 45.0)
  end
  begin
     id 24 
     name rclavicle
     direction -0.957247 0.24311 0.156766   
     length 3.12406  
     axis 0 0 0   XYZ 
    dof ry rz
    limits (-10.0 20.0)
           (-20.0 0.0)
  end
  begin
     id 25 
     name rhumerus
     direction -1 -4.48964e-011 -1.70632e-027  
     length 4.61969   
     axis 180 30 90   XYZ
    dof rx ry rz
    limits (-90.0 60.0)
           (-90.0 90.0)
           (-90.0 90.0)
  end
  begin
     id 26 
     name rradius
     direction -1 -4.48966e-011 -6.60395e-027   
     length 3.09382   
     axis 180 30 90   XYZ
    dof rx
    limits (-10.0 170.0)
  end
  begin
     id 27 
     name rwrist
     direction -1 -4.48963e-011 -1.41363e-026   
     length 1.54691   
     axis 1.07133e-014 -90 -90   XYZ
    dof ry
    limits (-180.0 0.0)
  end
  begin
     id 28
     name rhand
     direction -1 -4.49013e-011 -2.82725e-026   
     length 0.500896   
     axis 1.80403e-014 -90 -90   XYZ
    dof rx rz
    limits (-90.0 90.0)
           (-45.0 45.0)
  end
  begin
     id 29
     name rfingers
     direction -1 -4.48902e-011 -5.6545e-026   
     length 0.403835   
     axis 3.60806e-014 -90 -90   XYZ
    dof rx
    limits (0.0 90.0)
  end
  begin
     id 30
     name rthumb
     direction -0.707107 -6.34953e-011 0.707107   
     length 0.579829   
     axis -90 -45 -2.85299e-015   XYZ
    dof rx rz
    limits (-45.0 45.0)
           (-45.0 45.0)
  end
:hierarchy
  begin
    root lhipjoint rhipjoint lowerback
    lhipjoint lfemur
    lfemur ltibia
    ltibia lfoot
    lfoot ltoes
    rhipjoint rfemur
    rfemur rtibia
    rtibia rfoot
    rfoot rtoes
    lowerback upperback
    upperback thorax
    thorax lowerneck lclavicle rclavicle
    lowerneck upperneck
    upperneck head
    lclavicle lhumerus
    lhumerus lradius
    lradius lwrist
    lwrist lhand lthumb
    lhand lfingers
    rclavicle rhumerus
    rhumerus rradius
    rradius rwrist
    rwrist rhand rthumb
    rhand rfingers
  end

#!OML:ASF E:\madness\Project 1\Capture day 1\Session 1\Female1.ASF
:FULLY-SPECIFIED
:DEGREES
893
root 0.238708 14.8278 3.24155 -161.98 -64.562 178.335
lowerback -2.2384 -0.529495 -3.05308
upperback -3.62318 -0.746447 1.60748
thorax -2.41415 -0.309842 3.36879
lowerneck -3.01692 -1.05048 -1.73547
upperneck 23.613 -1.43695 -4.27448
head 7.73436 -1.61471 -1.27658
rclavicle 4.32854e-014 2.82274e-014
rhumerus -62.1987 -24.7385 -30.8082
rradius 54.4968
rwrist -2.3148
rhand -17.5834 -44.8678
rfingers 7.12502
rthumb 8.67242 -74.6697
lclavicle 4.32854e-014 2.82274e-014
lhumerus -55.8477 8.59293 62.1332
lradius 100.644
lwrist -2.65106
lhand -32.7187 -11.163
lfingers 7.12502
lthumb -5.94265 18.7337
rfemur 1.31435 14.8517 16.023
rtibia 27.4364
rfoot -28.9212 5.19883
rtoes 12.5903
lfemur -47.9854 -1.34259 -23.7068
ltibia 58.8404
lfoot -25.4608 1.50736
ltoes 19.2021
894
root 0.188175 14.8451 3.24388 -161.994 -64.4376 178.452
lowerback -2.468 -0.540673 -3.02742
upperback -3.49383 -0.751904 1.61291
thorax -2.15103 -0.318865 3.35575
lowerneck -3.27071 -1.26558 -1.87888
upperneck 23.6281 -1.72087 -4.18251
head 7.7842 -1.75132 -1.24608
rclavicle 1.75924e-014 -5.1684e-015
rhumerus -62.1118 -24.9774 -31.1478
rradius 54.2309
rwrist -2.00088
rhand -17.5415 -44.7284
rfingers 7.12502
rthumb 8.71285 -74.5285
lclavicle 1.75924e-014 -5.1684e-015
lhumerus -55.3183 8.54158 62.6259
lradius 100.038
lwrist -3.01096
lhand -33.0285 -11.2175
lfingers 7.12502
lthumb -6.24172 18.6706
rfemur 1.30765 14.9603 15.9331
rtibia 27.4563
rfoot -28.3801 5.02567
rtoes 11.47
lfemur -47.744 -1.18717 -23.8165
ltibia 58.5832
lfoot -25.5323 1.80119
ltoes 17.7041
895
root 0.138338 14.8638 3.24688 -162.164 -64.3642 178.692
lowerback -2.4079 -0.555613 -2.933
upperback -3.58049 -0.777234 1.6678
thorax -2.27258 -0.331071 3.36081
lowerneck -3.13281 -1.34287 -1.87779
upperneck 23.7357 -1.81587 -4.36357
head 7.79239 -1.82165 -1.3143
rclavicle -1.95306e-014 -1.43125e-014
rhumerus -62.1898 -24.6643 -31.4989
rradius 54.1032
rwrist -1.88631
rhand -17.167 -44.6525
rfingers 7.12502
rthumb 9.07424 -74.4373
lclavicle -1.95306e-014 -1.43125e-014
lhumerus -55.3627 8.4032 63.2612
lradius 99.6556
lwrist -3.14464
lhand -32.9638 -11.4022
lfingers 7.12502
lthumb -6.17923 18.4876
rfemur 1.30112 15.0786 15.9242
rtibia 27.501
rfoot -27.6827 5.02977
rtoes 11.5476
lfemur -47.4459 -1.08983 -23.8457
ltibia 58.2962
lfoot -25.5838 1.76275
ltoes 18.2098
896
root 0.0820607 14.8895 3.24873 -162.011 -64.2164 178.484
lowerback -2.31117 -0.585574 -3.05315
upperback -3.60627 -0.819379 1.63824
thorax -2.34953 -0.347697 3.39928
lowerneck -3.20184 -1.44159 -1.90283
upperneck 24.0021 -1.96191 -4.38161
head 7.89255 -1.90856 -1.33453
rclavicle 3.47873e-015 -1.23246e-014
rhumerus -62.2992 -24.5757 -31.843
rradius 53.97
rwrist -1.58563
rhand -17.0395 -44.652
rfingers 7.12502
rthumb 9.19723 -74.4315
lclavicle 3.47873e-015 -1.23246e-014
lhumerus -55.6949 8.41581 63.7792
lradius 99.6608
lwrist -3.78858
lhand -33.5849 -11.395
lfingers 7.12502
lthumb -6.77884 18.4765
rfemur 1.34283 15.2167 15.6888
rtibia 27.5574
rfoot -27.0978 5.24368
rtoes 11.6238
lfemur -46.9949 -1.14999 -24.0357
ltibia 57.9816
lfoot -25.6807 1.49951
ltoes 20.0138
897
root 0.0226941 14.9073 3.2491 -162.114 -63.9653 178.501
lowerback -2.45845 -0.640745 -3.14343
upperback -3.40438 -0.881043 1.62758
thorax -2.05214 -0.382605 3.43443
lowerneck -3.44594 -1.5071 -1.57408
upperneck 24.0211 -2.03253 -4.57559
head 7.93426 -1.93021 -1.46376
rclavicle 2.03257e-014 -4.37326e-015
rhumerus -62.115 -24.8777 -32.3117
rradius 53.7282
rwrist -1.00307
rhand -16.8381 -44.5904
rfingers 7.12502
rthumb 9.39158 -74.3611
lclavicle 2.03257e-014 -4.37326e-015
lhumerus -55.7273 8.55019 64.2234
lradius 99.5371
lwrist -4.06707
lhand -33.8514 -11.1284
lfingers 7.12502
lthumb -7.03614 18.7346
rfemur 1.45458 15.4206 15.5354
rtibia 27.677
rfoot -26.7159 5.34011
rtoes 10.6717
lfemur -46.4905 -1.10882 -24.1306
ltibia 57.7013
lfoot -25.8068 1.26265
ltoes 21.3834
898
root -0.0291097 14.9155 3.2524 -162.365 -63.8083 178.801
lowerback -2.61988 -0.732585 -3.08831
upperback -3.30974 -0.997063 1.70886
thorax -1.85362 -0.445765 3.48273
lowerneck -3.29869 -1.53625 -1.56612
upperneck 23.681 -2.0775 -4.54135
head 7.79282 -1.93409 -1.44646
rclavicle -3.97569e-016 -1.35174e-014
rhumerus -61.8214 -24.746 -32.9574
rradius 53.6162
rwrist -0.875616
rhand -16.844 -44.7401
rfingers 7.12502
rthumb 9.38585 -74.5111
lclavicle -3.97569e-016 -1.35174e-014
lhumerus -55.6652 8.69654 64.5889
lradius 99.1916
lwrist -4.21629
lhand -33.8711 -10.745
lfingers 7.12502
lthumb -7.05511 19.1175
rfemur 1.45411 15.5441 15.5181
rtibia 27.835
rfoot -26.1523 5.5211
rtoes 9.94855
lfemur -46.1556 -1.01192 -24.1374
ltibia 57.4443
lfoot -25.7977 1.70611
ltoes 20.0789
899
root -0.0705635 14.9302 3.25876 -162.115 -63.8455 178.698
lowerback -2.56197 -0.804735 -3.0868
upperback -3.42803 -1.09947 1.70309
thorax -1.99999 -0.494224 3.47717
lowerneck -3.08828 -1.62842 -1.94744
upperneck 23.4665 -2.26275 -4.09167
head 7.69257 -2.00582 -1.23893
rclavicle -8.94531e-016 -1.59028e-014
rhumerus -61.9962 -24.2643 -33.5842
rradius 53.8249
rwrist -1.32891
rhand -17.6279 -44.9928
rfingers 7.12502
rthumb 8.62944 -74.7964
lclavicle -8.94531e-016 -1.59028e-014
lhumerus -55.7044 8.53386 65.0414
lradius 98.8357
lwrist -4.32155
lhand -33.357 -10.3469
lfingers 7.12502
lthumb -6.55889 19.5316
rfemur 1.28701 15.5512 15.3702
rtibia 27.976
rfoot -25.3252 5.74988
rtoes 10.0651
lfemur -46.035 -1.14547 -24.2889
ltibia 57.1823
lfoot -25.7193 2.29866
ltoes 18.3501
900
root -0.118093 14.9531 3.26107 -161.94 -63.8138 178.631
lowerback -2.42534 -0.87133 -3.14699
upperback -3.58487 -1.19736 1.68405
thorax -2.23028 -0.537199 3.49514
lowerneck -3.08306 -1.65018 -1.99183
upperneck 23.5969 -2.35211 -3.83122
head 7.73821 -2.0353 -1.15522
rclavicle 3.62782e-015 1.47101e-014
rhumerus -62.2928 -23.9044 -34.101
rradius 54.031
rwrist -1.37202
rhand -17.9312 -45.1778
rfingers 7.12502
rthumb 8.33676 -74.9933
lclavicle 3.62782e-015 1.47101e-014
lhumerus -55.8862 8.54123 65.3355
lradius 98.6155
lwrist -4.51494
lhand -32.4147 -10.9336
lfingers 7.12502
lthumb -5.64908 18.9711
rfemur 1.14172 15.6874 15.2424
rtibia 28.1369
rfoot -24.4932 5.87688
rtoes 10.6447
lfemur -45.8173 -1.30476 -24.3867
ltibia 56.8991
lfoot -25.745 2.43074
ltoes 18.6807
901
root -0.176589 14.9739 3.26106 -162.184 -63.6384 178.913
lowerback -2.36 -0.89396 -3.14694
upperback -3.71944 -1.23412 1.80052
thorax -2.40118 -0.55111 3.61884
lowerneck -2.91372 -1.65615 -1.99199
upperneck 23.7179 -2.38176 -3.87018
head 7.7474 -2.06331 -1.17097
rclavicle 3.35449e-014 -7.95139e-015
rhumerus -62.3795 -23.5488 -34.378
rradius 53.961
rwrist -1.20797
rhand -17.5583 -45.3783
rfingers 7.12502
rthumb 8.69658 -75.1792
lclavicle 3.35449e-014 -7.95139e-015
lhumerus -56.0201 8.7016 65.7693
lradius 98.133
lwrist -4.41919
lhand -31.088 -12.6522
lfingers 7.12502
lthumb -4.36812 17.2828
rfemur 1.13118 15.891 15.2134
rtibia 28.315
rfoot -23.7043 6.05496
rtoes 11.0859
lfemur -45.3838 -1.36564 -24.3505
ltibia 56.5794
lfoot -25.76 2.57062
ltoes 19.4293
902
root -0.228755 14.9934 3.26414 -162.345 -63.4801 179.087
lowerback -2.72656 -0.815336 -2.98878
upperback -3.42689 -1.11204 1.76989
thorax -1.90577 -0.504837 3.48806
lowerneck -3.04918 -1.8616 -2.09024
upperneck 23.5123 -2.64535 -3.79381
head 7.70337 -2.1764 -1.14536
rclavicle -2.94698e-014 9.93923e-015
rhumerus -62.3394 -23.9593 -34.7188
rradius 53.7803
rwrist -1.26157
rhand -17.4 -45.4373
rfingers 7.12502
rthumb 8.84935 -75.2317
lclavicle -2.94698e-014 9.93923e-015
lhumerus -55.2479 8.77145 66.2983
lradius 97.5906
lwrist -4.73654
lhand -31.5562 -13.5141
lfingers 7.12502
lthumb -4.82019 16.411
rfemur 1.12448 16.0551 15.1398
rtibia 28.4648
rfoot -22.8048 6.24508
rtoes 11.7411
lfemur -44.9725 -1.43625 -24.367
ltibia 56.2344
lfoot -25.7069 2.86477
ltoes 19.316
